# xmcd
#
# Track frame offsets: 
#        150
#        20563
#        41855
#        56809
#        73578
#        88664
#        103803
#        122949
#        139093
#        154299
#        168704
#        187379
#        206024
#        232969
#        249598
#        275537
#        287635
#        300108
#        316897
#        330462
#        347795
#
# Disc length: 4798 seconds
#
# Revision: 0
# Processed by: cddbd v1.5.2PL0 Copyright (c) Steve Scherf et al.
# Submitted via: ExactAudioCopy v0.99pb4
#
DISCID=4412bc15
DTITLE=Various Artist - prevue promo 1130A-1
DYEAR=2004
DGENRE=pop
TTITLE0=John Mayer - Clarity
TTITLE1=India.Arie - Eyes Of The Heart
TTITLE2=FeFe Dobson - Everything(Hot AC Radio Edit)
TTITLE3=FeFe Dobson - Everything(Mainstream Radio Edit)
TTITLE4=Britney Spears - Toxic
TTITLE5=Jump 5 - Why Do I Do
TTITLE6=Janet Jackson - Megamix 04(Chris Cox Radio Edit)
TTITLE7=Tiffany Villarreal - You, Yourself and You
TTITLE8=Tatiano - Los marcianos llegaron ya (trans: "The Martians arri
TTITLE8=ved already" - Cumbia)
TTITLE9=Tatiano - Los marcianos llegaron ya (trans: "The Martians arri
TTITLE9=ved already" - Hip Hop)
TTITLE10=Avant - Don't Take Your Love Away(Lyric)
TTITLE11=Pink - Catch Me While I'm Sleeping
TTITLE12=Paul McCartney and Eric Clapton - While My Guitar Gently Weeps(
TTITLE12=Live  - Applause Tag)
TTITLE13=Starsailor - Silence Is Easy
TTITLE14=Sting - Sacred Love
TTITLE15=Jonny Lang - Long Time Coming
TTITLE16=White Stripes - I Just Don't Know What To Do With Myself
TTITLE17=Automatic Black - Go Your Way
TTITLE18=Sevendust - Broken Down
TTITLE19=Dropbox - Wishbone
TTITLE20=Billy Talent - Ex, The(Lyric - Album Version)
EXTD=
EXTT0=
EXTT1=
EXTT2=
EXTT3=
EXTT4=
EXTT5=
EXTT6=
EXTT7=
EXTT8=
EXTT9=
EXTT10=
EXTT11=
EXTT12=
EXTT13=
EXTT14=
EXTT15=
EXTT16=
EXTT17=
EXTT18=
EXTT19=
EXTT20=
PLAYORDER=
